<svg width="196" height="61" viewBox="0 0 196 61" fill="none" xmlns="http://www.w3.org/2000/svg">
<rect width="30.5" height="30.5" transform="matrix(0.866025 0.5 -2.20305e-08 1 0 15.25)" fill="#323232"/>
<rect width="30.5" height="30.5" transform="matrix(0.866025 0.5 -0.866025 0.5 26.4141 0)" fill="#DBC58C"/>
<rect width="30.5" height="30.5" transform="matrix(0.866025 -0.5 2.20305e-08 1 26.3409 30.5)" fill="#FCFCFC"/>
<rect width="19.0535" height="19.0535" transform="matrix(-0.866025 -0.5 -5.16191e-08 -1 42.9154 40.0254)" fill="#828282"/>
<rect width="19.0535" height="19.0535" transform="matrix(-5.16191e-08 -1 0.866025 -0.5 26.4144 49.5527)" fill="#323232"/>
<rect width="19.0535" height="19.0535" transform="matrix(-5.16191e-08 -1 0.866026 0.5 9.91345 40.0254)" fill="#DBC58C"/>
<rect width="19.0535" height="19.0535" transform="matrix(-0.866025 -0.5 0.866025 -0.5 26.4375 30.5391)" fill="#FCFCFC"/>
<path d="M65.958 28.5375H75.316V31.8565H70.4249V48.7507H65.958V28.5375Z" fill="#DBC58C"/>
<path d="M77.4344 28.5375H84.222C86.0021 28.5375 87.333 29.0449 88.2147 30.0597C89.0965 31.0579 89.5373 32.5053 89.5373 34.4018C89.5373 36.5645 89.0216 38.0701 87.9901 38.9186C86.9753 39.7504 85.5446 40.1663 83.698 40.1663H81.9012V48.7507H77.4344V28.5375ZM83.3985 37.047C84.1804 37.047 84.6961 36.839 84.9457 36.4231C85.2119 36.0072 85.345 35.3085 85.345 34.327C85.345 33.4286 85.2202 32.7631 84.9706 32.3306C84.7211 31.898 84.1887 31.6818 83.3736 31.6818H81.9012V37.047H83.3985Z" fill="#DBC58C"/>
<path d="M91.5159 49.7738C92.8136 49.8071 93.7868 49.6657 94.4356 49.3496C95.0844 49.0335 95.4089 48.4679 95.4089 47.6527C95.4089 47.4031 95.3673 47.087 95.2841 46.7044L90.7424 28.5375H94.8848L96.6316 36.8474L97.4551 42.2625L98.054 36.8224L99.5264 28.5375H103.719L99.5264 47.3782C99.1936 48.9254 98.7528 50.0733 98.2038 50.8219C97.6548 51.5872 96.8729 52.1029 95.858 52.3691C94.8599 52.6353 93.4125 52.7517 91.5159 52.7185V49.7738Z" fill="#DBC58C"/>
<path d="M110.649 49.125C108.636 49.125 107.205 48.576 106.357 47.478C105.508 46.38 105.084 44.8162 105.084 42.7865V42.0629H109.276V42.8365C109.276 43.8513 109.376 44.5666 109.576 44.9825C109.792 45.3985 110.175 45.6064 110.724 45.6064C111.256 45.6064 111.614 45.3985 111.797 44.9825C111.996 44.5666 112.096 43.8845 112.096 42.9363C112.096 41.8549 111.93 41.073 111.597 40.5905C111.281 40.0915 110.674 39.8336 109.775 39.817C109.726 39.8003 109.351 39.792 108.653 39.792V37.072H109.676C110.607 37.0553 111.239 36.8058 111.572 36.3233C111.922 35.8409 112.096 35.059 112.096 33.9776C112.096 33.179 111.971 32.5801 111.722 32.1809C111.472 31.765 111.073 31.557 110.524 31.557C110.008 31.557 109.634 31.765 109.401 32.1809C109.185 32.5968 109.068 33.1957 109.052 33.9776V35.1005H104.859V33.8778C104.859 32.081 105.367 30.6919 106.382 29.7104C107.413 28.7288 108.802 28.238 110.549 28.238C112.329 28.238 113.71 28.7039 114.692 29.6355C115.69 30.5671 116.189 31.923 116.189 33.7031C116.189 34.851 115.956 35.8325 115.49 36.6477C115.024 37.4629 114.434 37.9703 113.718 38.17C114.5 38.4694 115.107 38.9851 115.54 39.7171C115.973 40.4325 116.189 41.464 116.189 42.8115C116.189 44.7912 115.748 46.3384 114.866 47.453C113.984 48.5677 112.579 49.125 110.649 49.125Z" fill="#DBC58C"/>
<path d="M118.718 28.5375H122.237V40.1164L127.403 28.5375H130.297V48.7507H126.704V36.9721L121.438 48.7507H118.718V28.5375Z" fill="#DBC58C"/>
<path d="M133.637 28.5375H138.429L140.649 40.2911L143.045 28.5375H147.662L148.011 48.7507H144.842L144.468 35.3002L142.122 48.7507H139.302L136.806 35.2004L136.507 48.7507H133.288L133.637 28.5375Z" fill="#DBC58C"/>
<path d="M157.318 28.5375H162.584C163.898 28.5375 165.012 28.6789 165.927 28.9617C166.859 29.2279 167.608 29.752 168.173 30.5339C168.739 31.3158 169.022 32.4138 169.022 33.8279C169.022 35.0257 168.764 35.9573 168.248 36.6228C167.733 37.2882 167.001 37.7125 166.052 37.8955C167.217 38.0452 168.107 38.536 168.722 39.3678C169.338 40.1996 169.646 41.3309 169.646 42.7616C169.646 46.7543 167.608 48.7507 163.532 48.7507H157.318V28.5375ZM162.658 36.6228C163.607 36.6228 164.247 36.4065 164.58 35.974C164.929 35.5414 165.104 34.8676 165.104 33.9526C165.104 33.1541 164.888 32.5552 164.455 32.1559C164.023 31.74 163.39 31.532 162.559 31.532H161.785V36.6228H162.658ZM162.733 45.6314C163.682 45.6314 164.347 45.3985 164.73 44.9326C165.129 44.4502 165.329 43.7015 165.329 42.6867C165.329 41.5388 165.129 40.732 164.73 40.2661C164.347 39.8003 163.673 39.5674 162.708 39.5674H161.785V45.6314H162.733Z" fill="#DBC58C"/>
<path d="M177.778 49.0501C175.582 49.0501 174.018 48.4762 173.087 47.3283C172.172 46.1637 171.714 44.4918 171.714 42.3124V35.0257C171.714 32.7964 172.172 31.1161 173.087 29.9849C174.002 28.837 175.566 28.263 177.778 28.263C179.891 28.263 181.388 28.7704 182.27 29.7852C183.152 30.8 183.593 32.2391 183.593 34.1024V35.8492H179.226V33.8279C179.226 33.046 179.142 32.447 178.976 32.0311C178.81 31.6152 178.41 31.4073 177.778 31.4073C177.146 31.4073 176.73 31.6319 176.53 32.081C176.331 32.5136 176.231 33.1208 176.231 33.9027V43.4104C176.231 44.209 176.331 44.8245 176.53 45.257C176.747 45.673 177.163 45.8809 177.778 45.8809C178.394 45.8809 178.785 45.673 178.951 45.257C179.134 44.8245 179.226 44.209 179.226 43.4104V41.2893H183.593V43.0361C183.593 44.9326 183.152 46.4133 182.27 47.478C181.388 48.5261 179.891 49.0501 177.778 49.0501Z" fill="#DBC58C"/>
<path d="M186.05 28.5375H195.133V31.582H190.517V36.5978H194.035V39.6922H190.517V45.7312H195.183V48.7507H186.05V28.5375ZM186.3 22.748H189.544V26.4413H186.3V22.748ZM191.74 22.748H194.984V26.4413H191.74V22.748Z" fill="#DBC58C"/>
<path d="M66 10.1324H68.2184V14.4874H68.5276L70.2081 10.1324H72.3996L70.3829 15.1757L72.5206 20.8544H70.2485L68.5276 16.0626H68.2184V20.8544H66V10.1324Z" fill="#DBC58C"/>
<path d="M76.5351 21C75.3788 21 74.5542 20.7044 74.0613 20.1131C73.5683 19.513 73.3218 18.635 73.3218 17.4789V13.4813C73.3218 12.3253 73.5683 11.4561 74.0613 10.8736C74.5542 10.2912 75.3788 10 76.5351 10C77.6823 10 78.5025 10.2956 78.9954 10.8869C79.4974 11.4693 79.7483 12.3341 79.7483 13.4813V17.4922C79.7483 18.6394 79.4974 19.513 78.9954 20.1131C78.5025 20.7044 77.6823 21 76.5351 21ZM76.5351 19.438C76.9115 19.438 77.1625 19.3145 77.288 19.0674C77.4224 18.8115 77.4896 18.4629 77.4896 18.0217V12.9519C77.4896 12.5106 77.4224 12.1709 77.288 11.9326C77.1625 11.6855 76.9115 11.562 76.5351 11.562C76.1586 11.562 75.9032 11.6855 75.7687 11.9326C75.6432 12.1709 75.5805 12.5106 75.5805 12.9519V18.0217C75.5805 18.4717 75.6432 18.8203 75.7687 19.0674C75.8942 19.3145 76.1497 19.438 76.5351 19.438Z" fill="#DBC58C"/>
<path d="M81.3774 10.1324H83.7302L85.0747 16.8965L86.4998 10.1324H88.7719L88.9736 20.8544H87.3603L87.1855 13.574L85.7872 20.8544H84.4159L82.9773 13.5343L82.816 20.8544H81.1892L81.3774 10.1324Z" fill="#DBC58C"/>
<path d="M90.5777 10.1324H96.9908V20.8544H94.7993V11.6943H92.7557V20.8544H90.5777V10.1324Z" fill="#DBC58C"/>
<path d="M100.186 10.1324H102.646L104.744 20.8544H102.7L102.297 18.4982H100.576L100.159 20.8544H98.0751L100.186 10.1324ZM102.082 17.148L101.423 12.8327L100.778 17.148H102.082Z" fill="#DBC58C"/>
<path d="M105.874 10.1324H108.092V14.5271H110.015V10.1324H112.233V20.8544H110.015V16.1023H108.092V20.8544H105.874V10.1324Z" fill="#DBC58C"/>
<path d="M113.922 10.1324H115.697V16.5523L118.574 10.1324H120.026V20.8544H118.225V14.3285L115.321 20.8544H113.922V10.1324Z" fill="#DBC58C"/>
<path d="M123.133 16.0758C122.685 15.8287 122.331 15.4669 122.071 14.9904C121.811 14.505 121.681 13.9358 121.681 13.2828C121.681 12.1621 121.981 11.359 122.582 10.8736C123.182 10.3795 124.092 10.1324 125.311 10.1324H128V20.8544H125.782V16.5788H125.257L125.069 16.5656L123.429 20.8544H121.022L123.133 16.0758ZM125.782 15.0301V11.6414H125.351C124.285 11.6414 123.752 12.1929 123.752 13.296C123.752 13.852 123.877 14.28 124.128 14.58C124.379 14.8801 124.8 15.0301 125.392 15.0301H125.782Z" fill="#DBC58C"/>
</svg>
