<svg width="297" height="320" viewBox="0 0 297 320" fill="none" xmlns="http://www.w3.org/2000/svg">
<rect width="95.9587" height="95.9587" transform="matrix(0.866025 0.5 -2.20305e-08 1 65.6108 47.9795)" fill="#323232"/>
<rect width="95.9587" height="95.9587" transform="matrix(0.866025 0.5 -0.866025 0.5 148.711 0)" fill="#DBC58C"/>
<rect width="95.9587" height="95.9587" transform="matrix(0.866025 -0.5 2.20305e-08 1 148.483 95.9586)" fill="white"/>
<rect width="59.9458" height="59.9457" transform="matrix(-0.866025 -0.5 0 -1 200.625 125.931)" fill="#828282"/>
<rect width="59.9457" height="59.9457" transform="matrix(0 -1 0.866025 -0.5 148.708 155.904)" fill="#323232"/>
<rect width="59.9458" height="59.9458" transform="matrix(0 -1 0.866026 0.5 96.7954 125.931)" fill="#DBC58C"/>
<rect width="59.9457" height="59.9457" transform="matrix(-0.866025 -0.5 0.866025 -0.5 148.782 96.0819)" fill="#FCFCFC"/>
<path d="M0.182129 266.677H21.6606V273.974H10.4345V311.121H0.182129V266.677Z" fill="#323232"/>
<path d="M26.5228 266.677H42.1019C46.1876 266.677 49.2423 267.792 51.266 270.024C53.2898 272.218 54.3017 275.401 54.3017 279.571C54.3017 284.326 53.118 287.637 50.7506 289.503C48.4213 291.332 45.1375 292.246 40.8991 292.246H36.7752V311.121H26.5228V266.677ZM40.2118 285.387C42.0064 285.387 43.1901 284.93 43.7629 284.016C44.3738 283.101 44.6793 281.565 44.6793 279.406C44.6793 277.431 44.3929 275.968 43.8202 275.017C43.2474 274.066 42.0255 273.59 40.1545 273.59H36.7752V285.387H40.2118Z" fill="#323232"/>
<path d="M58.843 313.371C61.8214 313.444 64.0551 313.133 65.5443 312.438C67.0335 311.743 67.7781 310.499 67.7781 308.707C67.7781 308.158 67.6826 307.463 67.4917 306.622L57.0675 266.677H66.5753L70.5846 284.948L72.4747 296.855L73.8493 284.893L77.2286 266.677H86.851L77.2286 308.103C76.4649 311.505 75.4531 314.029 74.193 315.675C72.9329 317.358 71.1383 318.492 68.8091 319.077C66.518 319.663 63.196 319.919 58.843 319.846V313.371Z" fill="#323232"/>
<path d="M102.757 311.944C98.1369 311.944 94.8531 310.737 92.9057 308.323C90.9583 305.909 89.9846 302.47 89.9846 298.007V296.416H99.607V298.117C99.607 300.348 99.8361 301.921 100.294 302.836C100.791 303.75 101.669 304.208 102.929 304.208C104.151 304.208 104.972 303.75 105.392 302.836C105.85 301.921 106.079 300.422 106.079 298.337C106.079 295.959 105.697 294.24 104.934 293.179C104.208 292.081 102.814 291.514 100.752 291.478C100.638 291.441 99.7788 291.423 98.1751 291.423V285.442H100.523C102.662 285.406 104.113 284.857 104.876 283.796C105.678 282.735 106.079 281.016 106.079 278.638C106.079 276.882 105.793 275.566 105.22 274.688C104.647 273.773 103.731 273.316 102.471 273.316C101.287 273.316 100.428 273.773 99.8934 274.688C99.397 275.602 99.1297 276.919 99.0915 278.638V281.107H89.4691V278.419C89.4691 274.468 90.6337 271.414 92.963 269.256C95.3304 267.097 98.5187 266.018 102.528 266.018C106.614 266.018 109.783 267.042 112.036 269.091C114.327 271.139 115.472 274.121 115.472 278.035C115.472 280.559 114.938 282.717 113.869 284.509C112.8 286.302 111.444 287.417 109.802 287.856C111.597 288.515 112.99 289.649 113.983 291.258C114.976 292.831 115.472 295.099 115.472 298.062C115.472 302.415 114.461 305.817 112.437 308.268C110.413 310.719 107.186 311.944 102.757 311.944Z" fill="#323232"/>
<path d="M121.278 266.677H129.354V292.136L141.21 266.677H147.854V311.121H139.607V285.223L127.521 311.121H121.278V266.677Z" fill="#323232"/>
<path d="M155.52 266.677H166.517L171.615 292.52L177.113 266.677H187.71L188.511 311.121H181.237L180.378 281.546L174.994 311.121H168.522L162.794 281.327L162.107 311.121H154.719L155.52 266.677Z" fill="#323232"/>
<path d="M209.873 266.677H221.958C224.975 266.677 227.533 266.988 229.633 267.609C231.772 268.195 233.49 269.347 234.788 271.066C236.086 272.785 236.736 275.2 236.736 278.309C236.736 280.943 236.144 282.991 234.96 284.454C233.776 285.918 232.096 286.85 229.92 287.253C232.593 287.582 234.635 288.661 236.048 290.49C237.461 292.319 238.167 294.807 238.167 297.952C238.167 306.732 233.49 311.121 224.135 311.121H209.873V266.677ZM222.13 284.454C224.307 284.454 225.777 283.979 226.54 283.028C227.342 282.077 227.743 280.595 227.743 278.583C227.743 276.828 227.247 275.511 226.254 274.633C225.261 273.718 223.81 273.261 221.901 273.261H220.125V284.454H222.13ZM222.302 304.263C224.478 304.263 226.006 303.75 226.884 302.726C227.8 301.665 228.259 300.019 228.259 297.788C228.259 295.264 227.8 293.49 226.884 292.466C226.006 291.441 224.459 290.929 222.245 290.929H220.125V304.263H222.302Z" fill="#323232"/>
<path d="M256.833 311.78C251.793 311.78 248.204 310.518 246.065 307.994C243.965 305.433 242.915 301.757 242.915 296.965V280.943C242.915 276.041 243.965 272.347 246.065 269.859C248.165 267.335 251.755 266.073 256.833 266.073C261.682 266.073 265.119 267.189 267.143 269.42C269.167 271.651 270.178 274.816 270.178 278.913V282.754H260.155V278.309C260.155 276.59 259.964 275.273 259.582 274.358C259.201 273.444 258.284 272.987 256.833 272.987C255.382 272.987 254.428 273.48 253.969 274.468C253.511 275.419 253.282 276.754 253.282 278.474V299.379C253.282 301.135 253.511 302.488 253.969 303.439C254.466 304.354 255.42 304.811 256.833 304.811C258.246 304.811 259.143 304.354 259.525 303.439C259.945 302.488 260.155 301.135 260.155 299.379V294.715H270.178V298.556C270.178 302.726 269.167 305.982 267.143 308.323C265.119 310.627 261.682 311.78 256.833 311.78Z" fill="#323232"/>
<path d="M275.819 266.677H296.667V273.371H286.071V284.4H294.147V291.203H286.071V304.482H296.782V311.121H275.819V266.677ZM276.392 253.947H283.837V262.068H276.392V253.947ZM288.878 253.947H296.324V262.068H288.878V253.947Z" fill="#323232"/>
<path d="M63.4102 216.249H69.444V227.89H70.2851L74.8562 216.249H80.8169L75.3316 229.73L81.1461 244.91H74.9659L70.2851 232.101H69.444V244.91H63.4102V216.249Z" fill="#323232"/>
<path d="M92.0653 245.299C88.9204 245.299 86.6775 244.509 85.3366 242.928C83.9958 241.324 83.3253 238.977 83.3253 235.887V225.201C83.3253 222.111 83.9958 219.787 85.3366 218.231C86.6775 216.674 88.9204 215.895 92.0653 215.895C95.1858 215.895 97.4165 216.685 98.7574 218.266C100.123 219.823 100.805 222.135 100.805 225.201V235.922C100.805 238.989 100.123 241.324 98.7574 242.928C97.4165 244.509 95.1858 245.299 92.0653 245.299ZM92.0653 241.124C93.0892 241.124 93.7718 240.793 94.1132 240.133C94.4788 239.449 94.6617 238.517 94.6617 237.338V223.786C94.6617 222.606 94.4788 221.698 94.1132 221.061C93.7718 220.401 93.0892 220.071 92.0653 220.071C91.0414 220.071 90.3466 220.401 89.9809 221.061C89.6396 221.698 89.4689 222.606 89.4689 223.786V237.338C89.4689 238.541 89.6396 239.472 89.9809 240.133C90.3222 240.793 91.017 241.124 92.0653 241.124Z" fill="#323232"/>
<path d="M105.236 216.249H111.636L115.293 234.33L119.169 216.249H125.349L125.898 244.91H121.51L121.034 225.449L117.231 244.91H113.501L109.588 225.343L109.149 244.91H104.724L105.236 216.249Z" fill="#323232"/>
<path d="M130.261 216.249H147.704V244.91H141.744V220.424H136.185V244.91H130.261V216.249Z" fill="#323232"/>
<path d="M156.395 216.249H163.087L168.792 244.91H163.233L162.136 238.611H157.456L156.322 244.91H150.654L156.395 216.249ZM161.551 235.002L159.759 223.467L158.004 235.002H161.551Z" fill="#323232"/>
<path d="M171.867 216.249H177.901V227.996H183.13V216.249H189.164V244.91H183.13V232.207H177.901V244.91H171.867V216.249Z" fill="#323232"/>
<path d="M193.758 216.249H198.585V233.41L206.411 216.249H210.36V244.91H205.46V227.466L197.561 244.91H193.758V216.249Z" fill="#323232"/>
<path d="M218.811 232.136C217.592 231.476 216.629 230.509 215.922 229.235C215.215 227.937 214.861 226.416 214.861 224.67C214.861 221.675 215.678 219.528 217.311 218.231C218.945 216.91 221.419 216.249 224.735 216.249H232.049V244.91H226.015V233.481H224.589L224.077 233.445L219.615 244.91H213.069L218.811 232.136ZM226.015 229.341V220.283H224.845C221.943 220.283 220.493 221.757 220.493 224.706C220.493 226.192 220.834 227.336 221.517 228.138C222.199 228.94 223.345 229.341 224.954 229.341H226.015Z" fill="#323232"/>
</svg>
